<svg id="Layer_1" enable-background="new 0 0 512 512" height="512" viewBox="0 0 512 512" width="512" xmlns="http://www.w3.org/2000/svg"><g><g><g><g id="XMLID_678_"><g id="XMLID_679_"><g id="XMLID_680_"><g id="XMLID_681_"><g id="XMLID_720_"><g id="XMLID_723_"><g id="XMLID_745_"><g id="XMLID_746_"><g id="XMLID_747_"><g id="XMLID_748_"><g id="XMLID_749_"><g id="XMLID_750_"><g id="XMLID_751_"><g id="XMLID_752_"><path d="m512 256c0 61.15-21.449 117.296-57.216 161.323-3.17 3.902-159.604 16.272-198.784 16.272s-195.613-12.369-198.784-16.272c-35.767-44.027-57.216-100.173-57.216-161.323 0-141.38 114.62-256 256-256s256 114.62 256 256z" fill="#00ceb4"/></g></g></g></g></g></g></g></g></g></g></g></g></g></g></g></g><path d="m454.784 417.323c35.767-44.027 57.216-100.173 57.216-161.323 0-4.519-.121-9.009-.352-13.47l-185.045-185.02-96.053 193.65-74.61-2.921 118.336 118.335-217.056 50.746c.003.004.005.008.008.012 3.391 3.912 159.62 16.263 198.772 16.263 39.18 0 195.613-12.37 198.784-16.272z" fill="#00b2a1"/><g><path d="m201.52 290.676h108.961v115.553h-108.961z" fill="#f9b17a"/><path d="m256 290.679h54.48v115.553h-54.48z" fill="#ef9659"/><path d="m454.78 417.32c-46.93 57.77-118.55 94.68-198.78 94.68s-151.85-36.91-198.78-94.68c8.15-32.64 37.67-56.83 72.83-56.83h150.31 101.59c35.17 0 64.69 24.18 72.83 56.83z" fill="#4e7184"/><path d="m454.78 417.32c-46.93 57.77-118.55 94.68-198.78 94.68v-151.51h54.48 71.47c35.17 0 64.69 24.18 72.83 56.83z" fill="#3d5d72"/><path d="m347.031 184.361c-3.845-58.383-51.071-79.959-91.031-79.959-39.961 0-87.186 21.576-91.031 79.959-10.334 1.999-17.674 15.552-16.519 26.511l1.771 24.939c1.212 11.508 11.328 19.909 22.476 18.659l1.923-.208c22.836 61.319 58.648 67.712 81.38 71.302 22.732-3.59 58.544-9.983 81.379-71.302l1.923.208c11.148 1.25 21.264-7.151 22.476-18.659l1.771-24.939c1.156-10.958-6.184-24.512-16.518-26.511z" fill="#ffcea6"/><path d="m363.549 210.872-1.771 24.939c-1.212 11.508-11.328 19.909-22.476 18.659l-1.923-.208c-7.804 20.932-17.115 35.471-26.899 45.672-18.867 19.682-39.506 23.262-54.48 25.63v-221.162c39.96 0 87.186 21.576 91.031 79.959 10.334 1.999 17.674 15.553 16.518 26.511z" fill="#f9b17a"/><path d="m163.862 209.124h14.673l23.477-51.495s27.169 33.504 76.569 37.417l-8.81-26.934s20.406 7.329 47.799 10.079l14.103 30.933h14.673c9.893-38.443 31.068-143.773-91.242-143.773-78.355 0-97.892 42.752-99.165 83.929-.713 23.099 4.368 46.029 7.923 59.844z" fill="#ffe670"/><path d="m346.343 209.122h-14.673l-14.096-30.931c-27.4-2.749-47.805-10.076-47.805-10.076l8.814 26.93c-8.491-.675-16.326-2.221-23.477-4.324v-125.367c79.615 0 100.248 42.166 100.955 83.926.378 22.392-6.263 46.424-9.718 59.842z" fill="#fcd32b"/><path d="m140.95 484.75c-14.27-7.19-27.77-15.67-40.36-25.31l64.039-53.211z" fill="#ff735c"/><path d="m411.41 459.44c-12.59 9.64-26.09 18.12-40.36 25.31l-23.679-78.521z" fill="#e85642"/><path d="m356.06 126.01v23.27h-200.12v-23.27c0-1.79.06-3.57.18-5.33.327-5.047 3.99-8.765 5.213-13.513 1.285-4.989.174-10.992 2.347-15.557 12.87-27.06 40.46-45.76 72.42-45.76h39.81c31.96 0 59.54 18.7 72.41 45.76 2.038 4.283-.247 11.397 1.013 16.057 1.361 5.033 6.199 7.639 6.547 13.013.12 1.76.18 3.54.18 5.33z" fill="#4e7184"/><path d="m356.06 126.01v23.27h-100.06v-103.43h19.91c10.35 0 20.23 1.96 29.31 5.53 9.01 3.54 17.23 8.67 24.3 15.05 7.81 7.03 14.23 15.58 18.8 25.18 2.04 4.28-.25 11.4 1.01 16.06 1.36 5.03 6.2 7.64 6.55 13.01.12 1.76.18 3.54.18 5.33z" fill="#3d5d72"/><path d="m324.03 75.8-68.03 44.88-68.02-44.88c-6.72-4.43-7.45-14.02-1.47-19.42l5.24-4.73c.022-.02.044-.039.066-.059 3.76-3.373 9.337-3.759 13.613-1.07l50.571 31.809 50.582-31.81c4.274-2.688 9.85-2.304 13.609 1.067.023.021.046.042.07.063l5.24 4.73c5.979 5.4 5.249 14.99-1.471 19.42z" fill="#ff735c"/><path d="m329.52 66.43c-.26 3.63-2.12 7.15-5.49 9.37l-68.03 44.88v-38.35l49.22-30.95 1.36-.86c4.28-2.69 9.85-2.3 13.61 1.07.02.02.05.04.07.06l5.24 4.73c2.98 2.69 4.3 6.43 4.02 10.05z" fill="#e85642"/><path d="m307.562 49.905c-8.949-5.987-19.519-9.238-30.402-9.238h-42.31c-10.885 0-21.456 3.252-30.406 9.241l51.556 32.425z" fill="#3d5d72"/><path d="m307.56 49.9-51.56 32.43v-41.66h21.16c10.88 0 21.45 3.25 30.4 9.23z" fill="#244654"/><g><path d="m204.45 120.68h-48.33c.67-10.35 3.32-20.16 7.56-29.07z" fill="#3d5d72"/><path d="m355.88 120.68h-48.32l40.76-29.07c4.24 8.91 6.89 18.72 7.56 29.07z" fill="#244654"/></g></g></g></svg>